<?xml version="1.0" encoding="utf-8"?>
<!-- Generator: Adobe Illustrator 19.1.0, SVG Export Plug-In . SVG Version: 6.00 Build 0)  -->
<!DOCTYPE svg PUBLIC "-//W3C//DTD SVG 1.1//EN" "http://www.w3.org/Graphics/SVG/1.1/DTD/svg11.dtd">
<svg version="1.1" id="Capa_1" xmlns="http://www.w3.org/2000/svg" xmlns:xlink="http://www.w3.org/1999/xlink" x="0px" y="0px"
	 viewBox="-461 463 100 100" style="enable-background:new -461 463 100 100;" xml:space="preserve">
<style type="text/css">
	.st0{fill:#FFFFFF;}
</style>
<g>
	<g>
		<path class="st0" d="M-411,503c-8.3,0-15,6.7-15,15c0,8.3,6.7,15,15,15c8.3,0,15-6.7,15-15C-396,509.7-402.7,503-411,503z
			 M-371,488h-12c-1.6,0-3.4-1.3-3.9-2.8l-3.1-9.3c-0.5-1.6-2.3-2.8-3.9-2.8h-34c-1.6,0-3.4,1.3-3.9,2.8l-3.1,9.3
			c-0.5,1.6-2.3,2.8-3.9,2.8h-12c-5.5,0-10,4.5-10,10v45c0,5.5,4.5,10,10,10h80c5.5,0,10-4.5,10-10v-45
			C-361,492.5-365.5,488-371,488z M-411,543c-13.8,0-25-11.2-25-25c0-13.8,11.2-25,25-25c13.8,0,25,11.2,25,25
			C-386,531.8-397.2,543-411,543z M-374.5,505c-1.9,0-3.5-1.6-3.5-3.5c0-1.9,1.6-3.5,3.5-3.5c1.9,0,3.5,1.6,3.5,3.5
			C-371,503.4-372.6,505-374.5,505z"/>
	</g>
</g>
</svg>
